# xmcd
#
# Track frame offsets:
#	150
#	5460
#	10768
#	15800
#	30900
#	41480
#	55098
#	74252
#	88895
#	105550
#	135228
#
# Disc length: 1821 seconds
#
# Revision: 0
# Processed by: cddbd v1.5.1PL0 Copyright (c) Steve Scherf et al.
# Submitted via: dBpowerAMP V4.0
#
DISCID=71071b0b
DTITLE=wolf marshall - Jammin classic blues
DYEAR=1900
DGENRE=Blues
TTITLE0=intro
TTITLE1=e flat tuning
TTITLE2=standard tuning
TTITLE3=hideaway
TTITLE4=boot hill
TTITLE5=i'm your hoochie coochie man
TTITLE6=crossroads
TTITLE7=ramblin' on my mind
TTITLE8=pride and joy
TTITLE9=you shook me
TTITLE10=exit
EXTD=
EXTT0=
EXTT1=
EXTT2=
EXTT3=
EXTT4=
EXTT5=
EXTT6=
EXTT7=
EXTT8=
EXTT9=
EXTT10=
PLAYORDER=
